<?xml version="1.0" encoding="UTF-8"?><svg id="Layer_2" xmlns="http://www.w3.org/2000/svg" viewBox="0 0 250 250"><defs><style>.cls-1{fill:#222;}.cls-2{fill:#323232;}.cls-3{fill:#00cdcd;}</style></defs><polygon class="cls-2" points="132 52 128 43 124.61 29.6 146 6 165 10 184 23 204 41 229 69 243 93 245 99 246 116 225 134 219 135 199.6 125 187 138 187 143 185.31 150.4 176 156 168 158 162 156 148 169 149 174 146 183 140 188 131 192 124.61 192 121 195 124 209 120 223.6 105 236 92 242 74 239 48 225 29 208 15 184 7 163 8 146 30 122 45 121 56.8 125 60 122 59 114 71 100 85 99 92 93 99 87 97 76 109 63 120 63 132 52"/><polygon class="cls-1" points="169 22 178 25 195 37 211 53 226 73 232 87 233 92 227 93 216 87 210 81 199 66 186 53 178 46 172 37 167 25 169 22"/><polygon class="cls-3" points="199.6 125 178 108 159 90 141 66 132 52 120 63 117 68 116 71 121 87 139 111 157.8 128.13 174 137 181 139 187 138 199.6 125"/><polygon class="cls-3" points="162 156 151 153 143 148 126.5 135.87 115 122 108 113 101 99 99 87 85 99 80 107 79 110 81 119 86 132 100 149 113 163 126 170 136 174 143 172 146 171 162 156"/><polygon class="cls-3" points="124.61 192 121 195 109 204 102 207 90 205 76 197 59 181 50 167 44 154 43 140 56.8 125 60 122 61 130 66 147 77 162 91 177 107 188 124.61 192"/></svg>