<?xml version="1.0" encoding="UTF-8"?><svg id="Layer_3" xmlns="http://www.w3.org/2000/svg" viewBox="0 0 250 250"><defs><style>.cls-1,.cls-2{fill:#ccb16e;}.cls-3{fill:#85633d;}.cls-4{fill:#9c7e40;}.cls-2{opacity:.47;}.cls-5{fill:#7f2d33;}.cls-6{fill:#ba2d33;}</style></defs><polygon class="cls-4" points="76 36 68 31 68 15.07 76 9.47 164 15 172 21 173.2 22.73 173.2 34.8 166 39 166 80 173.2 83.87 173 95 166 103 139.87 103 134 110 125 113.2 124.5 117.47 129 122 129 128 125 131.07 140 163 177 169 179 171 153 200 158 237 156 239 126 226 123.5 224.67 119 226 91 244 87 245 84 243 91 206 89 203 63 179 61 175 63 172 100 167 102 166 120 131.87 115 129 114 121 120 116.93 119 114 111 111 109 106 105 104 100 103 77 103 69 96 67 82 77 78 76 36"/><polygon class="cls-6" points="85 23 158 27 160 28 162 32 162 84.6 162 86.2 160 89 84.4 89 83 86.8 83 85.8 83 24 85 23"/><polygon class="cls-2" points="120 131.87 121 131 122 132 124.5 192.93 100.99 166.51 120 131.87"/><polygon class="cls-3" points="61 175 124.5 192.93 123 196 91 206 89 203 63 179 61 175"/><polygon class="cls-3" points="179 171 124.5 192.93 123 196 153 200 179 171"/><polygon class="cls-3" points="84 243 123 196 126.26 196.43 158 237 156 239 123.5 224.67 119 226 91 244 87 245 84 243"/><polygon class="cls-1" points="124.5 192.93 100.99 166.51 63 172 61 175 124.5 192.93"/><polygon class="cls-5" points="83 83.8 162 83.8 162 86 160 89 84.4 89 83 86.8 83 83.8"/><polygon class="cls-3" points="68 15.07 72 17 72 25.6 68 31 68 15.07"/><polygon class="cls-3" points="76 34 79 31 80 80 72.6 83.8 72.6 92.8 69 96 67 82 77 78 76 34"/></svg>